<?xml version="1.0" encoding="utf-8"?>
<!-- Generator: Adobe Illustrator 27.5.0, SVG Export Plug-In . SVG Version: 6.00 Build 0)  -->
<svg version="1.1" xmlns="http://www.w3.org/2000/svg" xmlns:xlink="http://www.w3.org/1999/xlink" x="0px" y="0px"
	 viewBox="0 0 500 500" style="enable-background:new 0 0 500 500;" xml:space="preserve">
<g id="BACKGROUND">
</g>
<g id="OBJECTS">
	<g>
		<path style="fill:#D0EDB4;" d="M392.152,147.775c-17.629-1.538-36.26,7.676-52.501,0.648
			c-16.772-7.257-22.297-27.794-33.175-42.479c-11.297-15.251-29.968-24.765-48.947-24.942
			c-18.979-0.177-37.823,8.988-49.403,24.026c-8.157,10.594-14.228,24.879-27.16,28.275c-9.417,2.473-19.063-1.941-28.465-4.471
			c-30.632-8.243-65.879,5.702-82.58,32.672s-13.477,64.737,7.552,88.487c4.605,5.2,10.175,10.179,11.63,16.97
			c2.768,12.919-10.085,23.06-18.512,33.236C56.04,317.771,53.3,344.239,63.945,364.42c10.645,20.181,34.036,32.866,56.757,30.779
			c23.473-2.156,45.466-18.428,68.627-14.052c29.302,5.535,47.712,42.159,77.518,41.214c19.798-0.628,34.541-17.894,52.443-26.373
			c15.666-7.42,33.596-7.952,50.93-8.157c17.333-0.205,35.195-0.32,51.175-7.038c15.98-6.718,29.771-21.863,29.252-39.19
			c-0.529-17.667-14.801-31.341-27.066-44.068c-12.265-12.727-24.216-29.888-18.868-46.734c2.949-9.289,10.591-16.148,16.927-23.555
			C443.768,201.374,428.558,150.951,392.152,147.775z"/>
		<g>
			<defs>
				<path id="SVGID_1_" d="M392.152,147.775c-17.629-1.538-36.26,7.676-52.501,0.648c-16.772-7.257-22.297-27.794-33.175-42.479
					c-11.297-15.251-29.968-24.765-48.947-24.942c-18.979-0.177-37.823,8.988-49.403,24.026
					c-8.157,10.594-14.228,24.879-27.16,28.275c-9.417,2.473-19.063-1.941-28.465-4.471c-30.632-8.243-65.879,5.702-82.58,32.672
					s-13.477,64.737,7.552,88.487c4.605,5.2,10.175,10.179,11.63,16.97c2.768,12.919-10.085,23.06-18.512,33.236
					C56.04,317.771,53.3,344.239,63.945,364.42c10.645,20.181,34.036,32.866,56.757,30.779
					c23.473-2.156,45.466-18.428,68.627-14.052c29.302,5.535,47.712,42.159,77.518,41.214c19.798-0.628,34.541-17.894,52.443-26.373
					c15.666-7.42,33.596-7.952,50.93-8.157c17.333-0.205,35.195-0.32,51.175-7.038c15.98-6.718,29.771-21.863,29.252-39.19
					c-0.529-17.667-14.801-31.341-27.066-44.068c-12.265-12.727-24.216-29.888-18.868-46.734
					c2.949-9.289,10.591-16.148,16.927-23.555C443.768,201.374,428.558,150.951,392.152,147.775z"/>
			</defs>
			<clipPath id="SVGID_00000093135925814303195780000002662631993885379979_">
				<use xlink:href="#SVGID_1_"  style="overflow:visible;"/>
			</clipPath>
			<path style="clip-path:url(#SVGID_00000093135925814303195780000002662631993885379979_);fill:#9AD15F;" d="M411.861,194.19
				c-14.458,7.814-27.697,19.429-44.028,21.278c-11.606,1.314-23.252-2.579-34.915-1.937c-20.513,1.129-39.06,18.03-42.086,38.35
				c-2.793,18.757,6.047,39.507-3.159,56.087c-7.437,13.395-24.719,18.738-39.898,16.656c-15.179-2.082-28.808-10.077-41.977-17.907
				c-3.893-2.314-7.982-4.833-10.046-8.864c-3.954-7.724,1.096-17.493-1.859-25.652c-4.175-11.529-20.295-12.375-29.548-20.42
				c-13.693-11.905-9.175-36.355-22.659-48.497c-8.19-7.375-22.249-9.474-25.241-20.081c-2.631-9.325,5.541-17.906,8.44-27.151
				c5.432-17.322-10.269-36.107-28.243-38.653s-35.746,7.368-48.129,20.642c-18.585,19.922-27.928,48.135-24.908,75.212
				c3.033,27.191,17.77,53.547,12.865,80.463c-2.39,13.115-9.319,25.015-12.216,38.027c-8.023,36.026,17.276,72.66,49.573,90.524
				s70.226,21.525,106.831,26.239c38.137,4.911,76.229,11.356,114.68,11.71c38.451,0.354,77.811-5.736,111.426-24.407
				c33.615-18.67,60.812-51.273,66.569-89.292c4.299-28.393-3.24-56.702-9.424-84.216c-3.175-14.123-6.199-28.362-7.244-42.829
				c-0.628-8.692,1.867-21.949-5.745-28.371C440.806,182.571,421.849,188.792,411.861,194.19z"/>
			<path style="clip-path:url(#SVGID_00000093135925814303195780000002662631993885379979_);fill:#83B352;" d="M267.294,390.535
				c1.082-15.368-3.209-32.431,5.499-45.14c11.934-17.417,39.434-14.335,55.8-27.674c8.525-6.949,13.053-17.62,16.282-28.134
				c3.229-10.514,5.548-21.468,10.996-31.023c5.448-9.554,14.923-17.725,25.918-17.979c13.467-0.311,24.701,10.905,38.07,12.546
				c9.301,1.142,18.744-2.482,28.005-1.055c15.607,2.405,25.518,18.003,30.77,32.895c8.528,24.18,10.281,50.914,3.632,75.676
				c-6.649,24.762-21.901,47.36-43.169,61.679c-30.622,20.618-69.542,22.597-105.998,28.407c-16.118,2.569-32.26,6.02-48.571,5.44
				c-9.305-0.331-47.431-7.193-41.627-20.71c1.194-2.78,7.175-6.291,9.335-8.799c2.789-3.238,5.248-6.764,7.327-10.498
				C263.939,408.312,266.662,399.515,267.294,390.535z"/>
			<path style="clip-path:url(#SVGID_00000093135925814303195780000002662631993885379979_);fill:#83B352;" d="M260.199,405.12
				c-10.453,1.498-21.489-5.326-24.819-15.347c-3.507-10.553,0.643-23.539-6.189-32.313c-5.61-7.204-16.141-8.07-25.211-7.025
				c-9.07,1.045-18.506,3.343-27.113,0.295c-10.242-3.627-16.656-14.142-19.017-24.747c-2.361-10.606-1.486-21.621-1.788-32.482
				c-0.291-10.491-1.747-21.133-6.176-30.647c-4.43-9.514-12.138-17.841-22.055-21.277c-11.933-4.135-26.958-1.53-35.686-10.658
				c-6.663-6.97-6.686-18.151-12.431-25.896c-4.434-5.979-11.895-9.191-19.312-9.815c-7.417-0.624-14.842,1.074-21.923,3.369
				c4.012,18.21-0.717,37.159-6.662,54.833c-5.944,17.674-13.204,35.257-14.406,53.865c-2.313,35.779,18.806,70.058,47.387,91.705
				c28.581,21.647,63.784,32.542,98.72,40.602c21.947,5.063,44.102,9.168,66.266,13.177c13.317,2.409,27.368,4.731,40.106,0.162
				c13.184-4.729,23.319-17.075,25.389-30.928c1.504-10.065-1.674-27.527-11.221-33.517c-6.165-3.868-5.797,3.466-9.211,7.859
				C271.276,400.927,265.999,404.289,260.199,405.12z"/>
		</g>
	</g>
	<g>
		<g>
			<g>
				<g>
					<g>
						<path style="fill:#324354;" d="M370.828,314.707c-2.282-0.821-5.086-0.497-7.171,1.619c-1.844,1.871-2.807,4.754-3.559,7.497
							c-1.578,5.758-2.651,11.648-3.188,17.514c-0.112,1.225-0.159,2.607,0.504,3.362c1.02,1.161,2.825,0.014,4.099-1.194
							c4.513-4.278,8.49-9.553,11.672-15.428c1.007-1.859,3.895-6.365,3.615-8.528C376.501,317.244,372.379,315.265,370.828,314.707
							z"/>
					</g>
				</g>
			</g>
			<path style="fill:#FFFFFF;" d="M368.676,314.31c-1.742-0.056-3.557,0.532-5.019,2.016c-1.844,1.871-2.807,4.754-3.559,7.497
				c-1.578,5.758-2.651,11.648-3.188,17.514c-0.112,1.225-0.159,2.607,0.504,3.362c0.738,0.84,1.884,0.466,2.945-0.258
				C359.826,333.856,362.788,323.121,368.676,314.31z"/>
			<g>
				<g>
					<g>
						<path style="fill:#FFFFFF;" d="M367.043,326.794c-0.241-0.122-0.55-0.232-0.764-0.067c-0.161,0.124-0.193,0.363-0.13,0.556
							c0.063,0.193,0.201,0.351,0.336,0.503c1.374,1.548,2.749,3.096,4.123,4.645c0.38-0.591,0.748-1.193,1.112-1.8
							C370.452,329.041,368.86,327.71,367.043,326.794z"/>
					</g>
					<g>
						<path style="fill:#FFFFFF;" d="M364.412,330.801c0.063,0.193,0.201,0.351,0.336,0.503c1.245,1.403,2.491,2.806,3.736,4.208
							c0.414-0.569,0.822-1.145,1.22-1.731c-1.22-1.431-2.719-2.623-4.398-3.47c-0.241-0.122-0.55-0.232-0.764-0.067
							C364.381,330.368,364.349,330.608,364.412,330.801z"/>
					</g>
					<g>
						<path style="fill:#FFFFFF;" d="M367.504,336.826c-1.065-1.067-2.279-1.987-3.626-2.666c-0.242-0.122-0.55-0.232-0.764-0.067
							c-0.161,0.124-0.193,0.363-0.13,0.556c0.063,0.193,0.201,0.351,0.336,0.503c0.971,1.093,1.941,2.186,2.911,3.28
							C366.664,337.907,367.086,337.369,367.504,336.826z"/>
					</g>
				</g>
			</g>
		</g>
		<g>
			<g>
				<g>
					<g>
						<path style="fill:#324354;" d="M405.092,304.149c-2.282-0.821-5.086-0.497-7.171,1.619c-1.844,1.871-2.807,4.754-3.559,7.497
							c-1.579,5.758-2.651,11.648-3.188,17.514c-0.112,1.225-0.159,2.607,0.504,3.362c1.02,1.161,2.825,0.014,4.099-1.194
							c4.513-4.278,8.49-9.553,11.672-15.428c1.007-1.859,3.895-6.365,3.615-8.528C410.766,306.687,406.643,304.707,405.092,304.149
							z"/>
					</g>
				</g>
			</g>
			<path style="fill:#FFFFFF;" d="M402.941,303.752c-1.742-0.056-3.557,0.532-5.019,2.016c-1.844,1.871-2.807,4.754-3.559,7.497
				c-1.579,5.758-2.651,11.648-3.188,17.514c-0.112,1.225-0.159,2.607,0.504,3.362c0.738,0.84,1.884,0.466,2.945-0.258
				C394.09,323.298,397.053,312.564,402.941,303.752z"/>
			<g>
				<g>
					<g>
						<path style="fill:#6EC55C;" d="M401.308,316.236c-0.241-0.122-0.55-0.232-0.764-0.067c-0.161,0.124-0.193,0.363-0.13,0.556
							c0.063,0.193,0.201,0.351,0.336,0.503c1.375,1.548,2.749,3.096,4.123,4.645c0.38-0.591,0.748-1.193,1.112-1.8
							C404.716,318.484,403.124,317.152,401.308,316.236z"/>
					</g>
					<g>
						<path style="fill:#6EC55C;" d="M398.676,320.244c0.063,0.193,0.201,0.351,0.336,0.503c1.245,1.403,2.491,2.805,3.736,4.208
							c0.414-0.569,0.822-1.145,1.22-1.731c-1.22-1.431-2.719-2.623-4.398-3.47c-0.241-0.122-0.55-0.232-0.764-0.067
							C398.645,319.811,398.613,320.051,398.676,320.244z"/>
					</g>
					<g>
						<path style="fill:#6EC55C;" d="M401.769,326.268c-1.065-1.067-2.279-1.987-3.626-2.666c-0.242-0.122-0.55-0.232-0.764-0.067
							c-0.161,0.124-0.193,0.363-0.13,0.556c0.063,0.193,0.201,0.351,0.336,0.503c0.97,1.093,1.941,2.186,2.911,3.28
							C400.928,327.349,401.35,326.811,401.769,326.268z"/>
					</g>
				</g>
			</g>
		</g>
		<path style="fill:#D68465;" d="M377.996,205.234c3.574,4.55,6.097,9.919,7.321,15.573c6.494,1.397,13.467,0.207,19.195-3.155
			c-3.459-5.172-5.774-11.104-6.732-17.252c-4.812,3.697-10.971,5.961-17.039,5.925
			C379.607,206.318,378.397,206.294,377.996,205.234z"/>
		<path style="fill:#F0A384;" d="M433.733,176.555c2.681-6.661,7.137-12.45,12.675-16.465c0.574-0.416,1.231-0.831,1.908-0.697
			c0.692,0.137,1.182,0.803,1.567,1.449c0.911,1.53,1.604,3.215,2.047,4.976c0.44,1.747,0.614,3.699-0.154,5.304
			c-0.595,1.244-1.673,2.109-2.725,2.912c-4.24,3.236-8.657,6.193-13.219,8.849C434.453,181.102,432.872,178.693,433.733,176.555z"
			/>
		<path style="fill:#324354;" d="M422.461,265.51c5.516,7.99,11.049,16.009,15.459,24.658c4.41,8.649,7.69,18.003,8.403,27.686
			c0.131,1.782,0.104,3.773-1.109,5.085c-1.051,1.137-2.718,1.443-4.265,1.504c-8.417,0.332-16.029-4.599-22.996-9.335
			c-0.702-11.411-3.531-23.205-6.871-34.139C415.842,276.705,420.076,271.439,422.461,265.51z"/>
		<path style="fill:#47586A;" d="M393.491,274.826c-4.014,14.859-1.004,31.457,7.971,43.96c-7.4-3.214-16.279-4.152-24.32-3.503
			c-2.54,0.205-5.389,0.81-6.724,2.981c-0.977,1.589-0.849,3.676-0.076,5.373c0.773,1.697,2.109,3.07,3.5,4.313
			c11.665,10.42,28.17,13.607,43.812,13.585c12.063-10.485,1.983-56.788-0.841-61.261c-2.824-4.473-7.257-8.204-12.49-8.98
			C399.897,270.637,396.947,271.983,393.491,274.826z"/>
		<path style="fill:#6EC55C;" d="M388.642,217.606c7.168,0.582,14.033-3.387,18.625-8.922c0.816-0.983,1.572-2.017,2.261-3.093
			c4.063-6.351,7.668-13.186,11.437-19.716c2.943-5.1,6.66-10.127,11.564-13.191c3.023-1.889,7.047-0.809,8.553,2.422
			c0.224,0.481,0.404,0.971,0.533,1.458c2.389,9.04-5.432,17.585-10.294,25.572c-2.456,4.035-4.993,8.095-7.142,12.306
			c-3.428,6.716-3.974,14.51-1.803,21.73c1.616,5.375,16.203,38.674,10.785,45.508c-3.762,4.745-34.641,7.821-41.413,6.294
			c-6.94-1.565-4.989-17.075-7.049-23.884c-2.673-8.835-4.285-14.081-9.742-21.399c-6.516-8.737-21.36-25.864-25.423-29.251
			c-9.797-8.166-18.833-15.954-21.71-28.273c-0.289-1.236-1.269-5.468,0.81-8.103c0.019-0.025,0.038-0.05,0.057-0.075
			c1.476-1.916,4.261-2.208,6.16-0.71c5.757,4.54,9.921,7.763,20.093,17.187C358.367,196.637,375.915,216.572,388.642,217.606z"/>
		<g>
			
				<linearGradient id="SVGID_00000134944035849439597080000016568190282998075582_" gradientUnits="userSpaceOnUse" x1="425.7432" y1="233.7159" x2="440.1274" y2="211.4857">
				<stop  offset="0" style="stop-color:#589E4A"/>
				<stop  offset="1" style="stop-color:#6EC55C"/>
			</linearGradient>
			<path style="fill:url(#SVGID_00000134944035849439597080000016568190282998075582_);" d="M423.001,237.981
				c-0.004-0.012-0.009-0.023-0.013-0.035c0.003,0.01,0.012,0.035,0.012,0.035L423.001,237.981z"/>
		</g>
		<g>
			<polygon style="fill:#304152;" points="436.488,143.432 455.247,132.987 457.205,139.58 438.144,144.867 			"/>
			<polygon style="fill:#FFFFFF;" points="436.488,143.432 457.967,134.423 459.751,141.43 437.557,144.432 			"/>
			<polygon style="fill:#47586A;" points="436.488,143.432 446.88,185.167 466.658,175.613 460.121,136.225 			"/>
		</g>
		<path style="fill:#F0A384;" d="M441.316,168.994c1.864-1.92,4.077-3.501,6.498-4.642c0.61-0.288,1.256-0.552,1.931-0.544
			c0.362,0.004,0.769,0.124,0.928,0.45c0.115,0.237,0.065,0.527-0.065,0.757s-0.329,0.41-0.524,0.586
			c-1.67,1.505-3.339,3.009-5.009,4.514c0.312,2.124-0.82,4.396-2.695,5.441C441.346,173.634,441.083,171.163,441.316,168.994z"/>
		<path style="fill:#F0A384;" d="M334.273,177.591c-1.19-4.962-1.425-10.151-0.689-15.201c0.072-0.494,0.152-1.008,0.004-1.485
			c-0.148-0.477-0.603-0.9-1.097-0.83c-0.544,0.077-0.841,0.659-1.049,1.167c-0.808,1.977-1.616,3.954-2.423,5.93
			c-1.45-3.392-4.509-6.012-7.939-7.582c-1.426-0.653-3.078,0.239-3.335,1.786c-0.555,3.339,0.225,6.913,1.733,9.992
			c1.931,3.943,4.941,7.237,7.909,10.471c1.247,1.359,2.818,2.853,4.769,2.081c1.008-0.399,1.717-1.323,1.966-2.378
			C334.502,179.93,334.636,179.106,334.273,177.591z"/>
		<path style="fill:#F0A384;" d="M370.704,189.727c-1.117,4.246,0.229,8.758,2.91,12.496c2.682,3.738,6.612,6.772,10.84,9.369
			c2.43,1.492,11.442,3.957,14.567-1.101c1.229-1.988,1.715-4.202,1.808-6.416c0.248-5.901-1.687-11.849-5.482-16.856
			c-1.53-2.018-3.387-3.91-5.768-5.26C381.617,177.445,372.552,182.703,370.704,189.727z"/>
		<path style="fill:#324354;" d="M382.156,211.817c-0.875-3.163-2.817-6.444-4.048-8.785c-0.354,0.509-1.428,0.6-2.026,0.437
			c-0.598-0.163-1.09-0.59-1.493-1.061c-0.771-0.901-1.288-1.993-1.666-3.117c-0.244-0.724-0.436-1.49-0.329-2.246
			c0.107-0.756,0.574-1.502,1.297-1.747c0.723-0.245,2.364,1.371,2.484,2.125c0.166-1.676-0.867-4.62-1.815-6.012
			c5.291-4.174,12.766-6.601,19.473-5.937c2.56-3.243,3.798-7.601,3.745-11.733c-0.017-1.293-0.179-2.612-0.752-3.771
			c-0.572-1.159-1.608-2.143-2.875-2.4c-1.091-0.222-2.284,0.137-3.072,0.925c-0.787,0.788-1.146,1.98-0.925,3.071
			c-0.191-2.402-1.608-4.361-3.222-6.151c-1.059-1.174-2.407-2.133-3.943-2.506c-1.536-0.373-3.268-0.101-4.478,0.917
			c-1.184,0.996-1.747,2.579-1.838,4.123c-0.091,1.545,0.238,3.08,0.564,4.593c-1.614-0.793-3.719-1.049-5.507-1.24
			c-1.788-0.19-3.765,0.358-4.815,1.817c-1.118,1.553-0.912,3.76-0.001,5.442c0.911,1.682,2.407,2.957,3.869,4.191
			c-3.266,2.212-5.04,5.946-4.883,9.888c0.156,3.942,1.983,7.688,4.535,10.697C372.989,206.346,378.803,209.738,382.156,211.817z"/>
	</g>
	<g>
		<polygon style="fill:#823D67;" points="225.764,191.53 201.225,171.064 193.943,189.28 		"/>
		<polygon style="fill:#FFFFFF;" points="225.764,191.53 198.635,171.799 191.248,189.601 		"/>
		
			<linearGradient id="SVGID_00000008844133519154679090000014900751029161080203_" gradientUnits="userSpaceOnUse" x1="253.871" y1="370.4633" x2="221.677" y2="425.2184" gradientTransform="matrix(0.991 0.1339 -0.1339 0.991 50.4961 -121.6111)">
			<stop  offset="0" style="stop-color:#4A5F74"/>
			<stop  offset="1" style="stop-color:#C96AA2"/>
		</linearGradient>
		<path style="fill:url(#SVGID_00000008844133519154679090000014900751029161080203_);" d="M243.647,242.682
			c-2.321,5.407-2.6,11.967-6.79,16.099c-3.842,3.79-9.755,4.298-14.648,6.574c-6.436,2.994-11.146,9.425-12.059,16.465
			c-0.554,4.275,0.205,8.595,0.668,12.881c0.463,4.286,0.601,8.777-1.098,12.74c-0.017,0.04-0.034,0.079-0.052,0.119
			c-2.892,6.547,0.689,14.15,7.683,15.667c0.713,0.155,1.433,0.286,2.157,0.391c7.304,1.064,15.194-0.671,20.711-5.575
			c2.736-2.432,4.917-5.617,8.212-7.212c4.001-1.937,8.71-1.112,13.149-1.333c12.424-0.62,23.684-10.876,25.458-23.188
			c0.478-3.317,0.341-6.724,1.137-9.979c1.029-4.208,3.538-7.87,5.629-11.663c2.742-4.973,4.86-10.574,4.241-16.219
			c-0.619-5.645-3.896-13.614-9.509-14.474c-1.401-5.664-5.775-7.764-8.635-8.411c-3.551-0.803-7.419-0.23-10.28,1.978
			c-1.584,1.222-1.763,1.815-3.669,2.05c-1.816,0.224-3.672-0.095-5.527,0.222C253.217,231.048,246.558,235.902,243.647,242.682z"/>
		<path style="fill:#D68465;" d="M286.621,257.943c0.089,3.174-0.799,6.283-1.587,9.36c-0.788,3.076-1.486,6.266-1.014,9.406
			c0.473,3.14,2.36,6.255,5.351,7.322c-2.36,2.251-5.774,3.482-9.034,3.538s-6.526-1.155-8.962-3.323
			c2.175-0.816,2.613-3.673,2.525-5.994c-0.186-4.93-1.156-9.829-2.865-14.457C275.176,260.059,281.046,257.772,286.621,257.943z"/>
		<path style="fill:#F0A384;" d="M204.877,204.328c-1.23-1.069-2.588-2.07-4.17-2.464s-3.435-0.061-4.484,1.186
			c-1.373,1.632-0.939,4.064-0.418,6.132c1.137,4.515,2.348,9.064,4.541,13.171c2.194,4.107,5.486,7.789,9.779,9.591
			c2.175,0.913,4.723,0.877,6.07-1.367c1.006-1.675,0.159-3.615-0.197-5.366c-1.037-5.115-2.409-9.817-5.316-14.228
			C209.058,208.517,207.107,206.265,204.877,204.328z"/>
		<path style="fill:#A75887;" d="M299.785,326.123c1.845,1.552,2.641,3.995,3.247,6.329c2.157,8.312,2.981,16.956,2.587,25.534
			c-0.096,2.078-0.377,4.389-1.97,5.727c-1.56,1.31-3.822,1.224-5.853,1.067c-2.255-0.173-4.766-0.474-6.209-2.214
			c-0.96-1.158-1.232-2.72-1.47-4.206c-0.876-5.462-1.755-10.956-1.69-16.487c0.055-4.735,0.72-10.023,3-14.257
			C293.005,324.684,297.139,323.896,299.785,326.123z"/>
		<path style="fill:#F0A384;" d="M298.344,270.01c9.492-16.465,15.023-35.196,15.998-54.177c2.402-1.424,7.548-0.044,9.405,2.041
			c-2.187,20.775-5.864,37.607-17.239,59.845C303.762,275.758,300.158,272.855,298.344,270.01z"/>
		<path style="fill:#F0A384;" d="M251.81,268.2c-15.208-11.399-27.666-26.44-36.034-43.504c-2.768-0.363-6.956,2.931-7.842,5.579
			c10.189,18.237,20.195,32.262,39.406,48.227C249.093,275.617,251.263,271.53,251.81,268.2z"/>
		<path style="fill:#D67194;" d="M266.144,387.226c0,0-0.795-7.137-6.152-6.984c-5.357,0.154-15.349,21.933-15.505,25.018
			c-0.156,3.085,1.483,7.299,17.076-9.491C266.858,388.532,266.144,387.226,266.144,387.226z"/>
		<path style="fill:#FEA5C3;" d="M255.878,381.276c0,0-2.616-6.688-7.75-5.153c-5.135,1.535-9.148,25.159-8.5,28.179
			c0.648,3.02,3.322,6.666,14.036-13.588C256.905,382.353,255.878,381.276,255.878,381.276z"/>
		
			<linearGradient id="SVGID_00000142152603431183699910000007337526129045194169_" gradientUnits="userSpaceOnUse" x1="299.5299" y1="453.8893" x2="324.6103" y2="461.0551" gradientTransform="matrix(0.991 0.1339 -0.1339 0.991 50.4961 -121.6111)">
			<stop  offset="0" style="stop-color:#3A2763"/>
			<stop  offset="1" style="stop-color:#4E3B7D"/>
		</linearGradient>
		<path style="fill:url(#SVGID_00000142152603431183699910000007337526129045194169_);" d="M292.043,339.311
			c0,0,24.051,92.92-16.328,58.371c-13.053-47.515-14.691-68.383-8.757-70.631C272.894,324.802,290.257,331.724,292.043,339.311z"/>
		<path style="fill:#4E3B7D;" d="M257.327,330.446c0,0-16.509,14.032,2.858,50.747c-7.445-1.006-10.517-1.421-12.921,2.477
			c-2.404,3.898,10.74,14.277,30.535,17.109c0,0,15.602,4.924,12.941-13.58c-2.661-18.504-9.444-36.946-17.094-54.99
			C264.127,322.784,257.327,330.446,257.327,330.446z"/>
		<path style="fill:#FEA5C3;" d="M316.879,270.272c-4.653-6.275-10.821-11.419-17.83-14.87
			c-2.743,10.328-5.295,19.055-12.626,24.971c-5.803,4.683-11.902-0.4-17.077-3.802c-7.712-5.095-14.691-10.617-21.47-16.9
			c-6.35,7.369-7.954,9.581-12.183,18.341c5.255,3.167,9.606,5.564,13.941,8.348c4.817,3.094,8.068,8.115,8.936,13.774
			c1.537,10.027,0.986,20.472-1.244,30.311l34.716,8.865c3.428-12.205,5.661-24.62,6.769-37.21
			c0.488-5.546,2.539-10.837,5.854-15.309C308.745,281.293,312.864,275.832,316.879,270.272z"/>
		<path style="fill:#FFFFFF;" d="M246.57,383.11c0.765-1.772,1.58-3.54,2.724-5.095c0.509-0.692,1.094-1.337,1.741-1.904
			c-0.857-0.267-1.826-0.312-2.908,0.012c-5.135,1.535-9.148,25.159-8.5,28.179c0.254,1.185,0.82,2.465,2.061,2.362
			c-0.384-3.802-0.039-7.666,0.779-11.404C243.383,391.078,244.874,387.041,246.57,383.11z"/>
		<path style="fill:#F0A384;" d="M316.528,218.735c-4.933-6.438-11.028-11.983-17.903-16.286c-0.618-0.387-1.326-1.144-0.871-1.714
			c0.273-0.343,0.793-0.32,1.226-0.252c3.962,0.628,7.719,2.494,10.612,5.273c-0.981-1.917-1.613-4.048-2.594-5.965
			c-0.175-0.342-0.349-0.76-0.153-1.091c0.284-0.477,1.01-0.308,1.502-0.049c2.994,1.573,5.374,4.281,6.548,7.452
			c9.191,0.829,9.945,10.645,8.851,11.771C322.653,219,318.073,219.015,316.528,218.735z"/>
		<path style="fill:#C96AA2;" d="M268.722,276.157c2.915,11.292,8.816,35.047,30.459,60.155c-0.851,2.206-5.554,3.737-5.554,3.737
			c-19.782-20.238-27.933-52.611-29.744-67.247C264.857,271.871,268.092,273.585,268.722,276.157z"/>
		<path style="fill:#873A69;" d="M296.746,324.872c3.935,10.572,5.415,22.07,4.272,33.293c-0.025,0.248,0.151,0.469,0.396,0.502
			c0.004,0.001,0.01,0.001,0.015,0.002c0.252,0.025,0.478-0.159,0.504-0.412c1.138-11.18-0.296-22.627-4.136-33.188
			C297.452,324.969,297.101,324.904,296.746,324.872z"/>
		<polygon style="fill:#A75887;" points="225.764,191.53 198.715,240.182 173.794,223.042 196.057,172.814 		"/>
		<path style="fill:#F0A384;" d="M212.753,221.77c-1.411-4.064-4.061-7.688-7.505-10.265c-0.385-0.288-0.793-0.569-1.261-0.678
			c-0.468-0.109-1.015-0.008-1.32,0.363c-0.344,0.419-0.289,1.03-0.168,1.558c0.421,1.836,3.331,5.977,4.757,7.208
			c-0.43,2.918,2.112,6.119,2.689,6.174c0.915,0.087,1.767-0.584,2.182-1.404S213.055,222.639,212.753,221.77z"/>
		<path style="fill:#F0A384;" d="M260.748,256.592c1.323,5.862,3.453,11.183,7.413,15.946c1.509,1.815,4.701,3.675,7.279,3.758
			c2.196,0.071,4.205-1.237,5.711-2.709c4.304-4.206,5.994-9.949,7.113-15.478c0.702-3.467,1.241-6.996,0.833-10.466
			c-0.408-3.469-1.844-6.908-4.626-9.304c-2.639-2.272-6.421-3.464-10.159-3.201C262.313,235.983,258.79,247.913,260.748,256.592z"
			/>
		<path style="fill:#D68465;" d="M285.623,280.95c0,0-1.437,17.569-11.739-1.379C276.405,278.529,285.623,280.95,285.623,280.95z"/>
		<path style="fill:#4A5F74;" d="M277.32,249.864c-0.055,3.02,1.117,5.778,3.825,7.186c2.354-3.749,4.967-2.474,5.064,0.721
			c0.037,1.205,0.027,4.047-1.984,5.716c-0.67,0.556-1.792,0.622-2.374-0.026c0.633,3.092,2.626,5.633,5.224,7.424
			c2.214-4.813,3.994-9.888,4.526-15.159c0.531-5.271-0.255-10.774-2.897-15.367c-2.642-4.592-7.271-8.159-12.521-8.87
			c-5.25-0.711-10.964,1.763-13.5,6.414c-1.111,2.037-1.592,4.345-2.302,6.554c-0.71,2.209-2.505,3.779-3.594,5.828
			C250.524,262.077,268.42,260.046,277.32,249.864z"/>
	</g>
	<g>
		<path style="fill:#F0A384;" d="M196.8,159.07c-16.256,6.087-33.297,10.07-50.567,11.82c-0.041,4.286,1.325,8.361,3.332,12.149
			c13.411-1.897,26.426-6.042,38.947-11.208c2.904-1.198,5.899-2.536,7.888-4.968C198.389,164.432,198.87,161.432,196.8,159.07z"/>
		<path style="fill:#F0A384;" d="M88.986,166.24c-12.007-13.047-22.479-27.504-31.132-42.98c3.757-0.381,8.929,0.021,11.219,3.024
			c6.741,8.839,16.183,19.32,24.696,28.922c0.474,0.535,0.967,1.105,1.108,1.807c0.204,1.018-0.378,2.012-0.955,2.875
			C92.251,162.384,90.973,163.987,88.986,166.24z"/>
		<path style="fill:#D68465;" d="M134.636,152.316c-3.87,4.927-6.604,10.742-7.929,16.866c-7.033,1.513-14.585,0.224-20.789-3.417
			c3.746-5.601,6.254-12.026,7.291-18.684c5.212,4.004,11.882,6.455,18.454,6.417C132.891,153.49,134.202,153.465,134.636,152.316z"
			/>
		<path style="fill:#F0A384;" d="M142.702,143.199c-0.449,4.733-3.501,8.819-7.623,11.618c-4.121,2.799-7.776,5.046-14.518,5.479
			c-3.573,0.229-13.109-0.248-14.399-6.557c-0.507-2.48-0.175-4.912,0.557-7.198c1.95-6.092,6.137-11.417,11.865-15.091
			c2.308-1.48,4.903-2.712,7.827-3.195C136.19,126.64,143.444,135.368,142.702,143.199z"/>
		<path style="fill:#F0A384;" d="M59.645,126.797c-3.661-4.923-5.257-11.333-4.333-17.398c0.114-0.751,0.312-1.571,0.934-2.006
			c0.622-0.435,1.742-0.086,1.704,0.672c0.919-2.123,1.895-5.267,4.783-7.481c1.171-0.898,2.941-1.147,4.119-0.258
			c1.578,1.191,1.349,3.583,0.984,5.526c-1.287,6.852-2.189,14.361,1.238,20.432C66.686,128.86,61.74,129.615,59.645,126.797z"/>
		<g>
			<path style="fill:#324354;" d="M93.919,278.703c1.141,0.803,1.661,2.212,2.078,3.543c2.946,9.411,3.947,19.426,2.93,29.234
				c-0.105,1.016-1.302,1.496-2.112,0.874c-1.527-1.172-2.676-2.901-3.676-4.587c-4.148-6.988-7.322-14.554-9.402-22.41
				c-0.405-1.531-1.174-3.822-0.722-5.421c0.441-1.563,0.864-1.188,2.334-1.203C87.976,278.707,91.551,277.037,93.919,278.703z"/>
			<path style="fill:#FFFFFF;" d="M93.919,278.703c-0.824-0.58-1.795-0.751-2.821-0.732c0.016,0.088,0.027,0.169,0.049,0.263
				c0.728,3.117,1.814,6.155,2.525,9.286c1.412,6.218,2.299,12.556,2.647,18.923c0.024,0.439,0.116,3.076,0.166,5.615
				c0.112,0.096,0.213,0.208,0.329,0.298c0.81,0.622,2.007,0.142,2.112-0.874c1.016-9.809,0.016-19.823-2.93-29.234
				C95.58,280.914,95.06,279.506,93.919,278.703z"/>
			<path style="fill:#FFFFFF;" d="M91.506,304.886c0.527,0.97,1.069,1.932,1.633,2.882c0.696,1.173,1.474,2.356,2.391,3.368
				c0.036-2.525-0.33-5.052-1.172-7.435C93.353,303.946,92.392,304.354,91.506,304.886z"/>
			<g>
				<path style="fill:#FFFFFF;" d="M87.557,296.625c0.021-0.014,0.042-0.019,0.063-0.035c1.21-0.887,2.42-1.774,3.63-2.66
					c0.289-0.212,0.614-0.508,0.54-0.859c-0.056-0.269-0.344-0.439-0.619-0.449c-0.275-0.009-0.537,0.105-0.784,0.225
					c-1.236,0.6-2.359,1.394-3.451,2.223C87.14,295.589,87.342,296.109,87.557,296.625z"/>
				<path style="fill:#FFFFFF;" d="M92.316,296.607c0.29-0.212,0.614-0.508,0.54-0.86c-0.056-0.269-0.344-0.439-0.619-0.449
					c-0.275-0.009-0.537,0.105-0.784,0.225c-1.225,0.595-2.34,1.381-3.423,2.201c0.221,0.511,0.442,1.022,0.673,1.53
					C89.908,298.372,91.112,297.49,92.316,296.607z"/>
				<path style="fill:#FFFFFF;" d="M93.484,299.773c0.29-0.212,0.614-0.508,0.54-0.859c-0.056-0.269-0.345-0.439-0.619-0.449
					c-0.275-0.009-0.537,0.105-0.784,0.225c-1.149,0.558-2.201,1.284-3.221,2.048c0.239,0.5,0.474,1.003,0.722,1.499
					C91.243,301.416,92.364,300.594,93.484,299.773z"/>
			</g>
		</g>
		<g>
			<path style="fill:#324354;" d="M162.302,253.009c1.39,0.122,2.546,1.081,3.575,2.023c7.269,6.664,13.157,14.827,17.197,23.822
				c0.419,0.932-0.376,1.947-1.389,1.815c-1.909-0.248-3.769-1.167-5.481-2.124c-7.094-3.965-13.634-8.919-19.373-14.673
				c-1.118-1.121-2.932-2.718-3.344-4.328c-0.402-1.574,0.152-1.461,1.416-2.211C157.163,255.993,159.418,252.755,162.302,253.009z"
				/>
			<path style="fill:#FFFFFF;" d="M162.302,253.009c-1.003-0.088-1.93,0.251-2.807,0.781c0.058,0.068,0.109,0.133,0.174,0.203
				c2.193,2.332,4.656,4.415,6.842,6.768c4.34,4.672,8.286,9.71,11.781,15.043c0.241,0.368,1.643,2.603,2.96,4.774
				c0.145,0.026,0.288,0.073,0.434,0.092c1.013,0.132,1.807-0.884,1.389-1.815c-4.04-8.995-9.928-17.158-17.197-23.822
				C164.849,254.089,163.692,253.131,162.302,253.009z"/>
			<path style="fill:#FFFFFF;" d="M173.347,276.871c0.943,0.575,1.894,1.135,2.858,1.674c1.191,0.666,2.457,1.299,3.758,1.715
				c-1.235-2.202-2.819-4.206-4.742-5.844C174.473,275.131,173.846,275.966,173.347,276.871z"/>
			<g>
				<path style="fill:#FFFFFF;" d="M165.787,271.705c0.011-0.023,0.027-0.038,0.037-0.062c0.602-1.374,1.204-2.748,1.806-4.122
					c0.144-0.329,0.276-0.748,0.036-1.015c-0.184-0.204-0.518-0.207-0.761-0.077c-0.242,0.13-0.412,0.36-0.566,0.588
					c-0.768,1.139-1.342,2.389-1.871,3.654C164.907,271.018,165.343,271.366,165.787,271.705z"/>
				<path style="fill:#FFFFFF;" d="M169.895,269.302c0.144-0.329,0.276-0.748,0.036-1.015c-0.184-0.204-0.518-0.207-0.761-0.078
					c-0.242,0.13-0.412,0.36-0.566,0.588c-0.761,1.129-1.332,2.368-1.857,3.621c0.447,0.332,0.896,0.663,1.349,0.986
					C168.697,272.038,169.296,270.67,169.895,269.302z"/>
				<path style="fill:#FFFFFF;" d="M172.494,271.456c0.144-0.329,0.276-0.748,0.036-1.015c-0.184-0.204-0.518-0.207-0.761-0.078
					c-0.242,0.13-0.412,0.36-0.566,0.588c-0.714,1.059-1.26,2.214-1.759,3.388c0.458,0.313,0.913,0.63,1.376,0.934
					C171.378,274.001,171.936,272.728,172.494,271.456z"/>
			</g>
		</g>
		<path style="fill:#33586B;" d="M148.107,257.558c0,0,2.894,10.397,10.972,16.155C162.131,270.594,154.907,257.316,148.107,257.558
			z"/>
		<path style="fill:#466B80;" d="M78.385,225.541c-18.205,10.501-33.14,26.583-42.268,45.514c-2.005,4.159-3.757,8.966-2.141,13.291
			c1.943,5.201,7.914,7.576,13.356,8.676c12.61,2.549,25.635,1.468,38.454,0.376c1.267-4.877,0.495-10.922-2.654-14.857
			c-8.389-0.978-17.744-2.022-26.185-2.316c7.022-6.155,20.47-11.383,29.407-14.088c8.872,11.068,14.657,20.912,23.528,31.98
			c1.457,1.818,3.059,3.736,5.299,4.379c2.218,0.637,4.576-0.118,6.731-0.944c14.842-5.686,28.225-15.134,38.552-27.216
			c-3.339-3.773-6.947-8.473-10.285-12.246c-8.462,4.672-17.386,9.037-25.848,13.709c-1.668-16.794-5.303-26.614-10.443-37.181
			C101.14,228.524,92.104,228.921,78.385,225.541z"/>
		<path style="fill:#33586B;" d="M36.117,271.055c-2.005,4.159-3.757,8.966-2.141,13.291c1.943,5.201,7.914,7.576,13.357,8.676
			c12.61,2.549,25.635,1.468,38.454,0.376c1.267-4.877,0.495-10.922-2.654-14.857c-8.389-0.978-17.744-2.022-26.185-2.316
			c7.022-6.155,20.47-11.383,29.407-14.088c0,0-8.907-15.837,2.07-27.582c-0.371-2.701-1.046-5.117-1.933-7.292
			c-2.549-0.472-5.22-1.012-8.105-1.723C60.18,236.042,45.245,252.124,36.117,271.055z"/>
		<path style="fill:#4767A8;" d="M142.001,228.557c-1.919,6.089-5.326,12.629-11.494,14.279c-4.242,1.135-8.702-0.378-12.786-1.991
			c-7.338-2.898-14.64-6.26-20.569-11.465c-5.929-5.205-10.394-12.519-10.627-20.405c-0.216-7.299,3.221-14.378,8.212-19.708
			c4.991-5.331,11.431-9.092,18.062-12.151c5.143-2.373,10.521-4.386,16.141-5.09c4.219-0.529,8.599-0.289,12.651,1.056
			c2.215,0.735,3.184,0.976,3.809,3.01c0.666,2.167,0.405,5.095,0.546,7.356c0.597,9.612,0.7,19.298-0.487,28.871
			C144.777,217.818,143.668,223.269,142.001,228.557z"/>
		<g>
			<path style="fill:#2C4C89;" d="M138.949,226.166l-1.028-0.182c0.054-0.31,5.427-31.086,2.36-42.201l1.008-0.277
				C144.417,194.848,139.175,224.892,138.949,226.166z"/>
		</g>
		<path style="fill:#33586B;" d="M77.93,276.525c0,0-3.427,10.766,2.82,19.324c2.852-2.931,1.708-11.939,1.708-11.939
			S81.266,278.67,77.93,276.525z"/>
		<path style="fill:#5D8BA8;" d="M86.073,294.973c1.84-6.196,0.835-12.982-2.441-18.553c-1.866-0.169-3.831,0.007-5.702,0.105
			c2.718,6.009,3.708,12.789,2.82,19.324C82.372,295.675,84.474,295.29,86.073,294.973z"/>
		<path style="fill:#5D8BA8;" d="M163.486,270.601c-1.049-6.377-4.915-12.044-10.295-15.627c-1.752,0.663-3.444,1.678-5.084,2.583
			c5.069,4.22,8.918,9.888,10.972,16.155C160.462,272.848,162.185,271.585,163.486,270.601z"/>
		<path style="fill:#7190C6;" d="M154.32,166.064c-0.607,0.083-2.324,0.693-2.931,0.774c-14.364,1.929-29.919,1.913-42.187-5.803
			c-5.677-3.571-12.758-9.615-19.578-16.372c-4.174,2.702-7.82,6.224-10.597,10.35c-1.275,1.895-2.345,3.92-3.245,6.018
			c3.512,3.983,7.014,7.43,10.244,9.902c3.819,2.922,5.072,8.13,2.982,12.46c-6.723,13.93-11.131,25.29-14.25,42.169
			c11.856,11.305,28.966,17.088,45.292,18.445c4.885-18.3,9.71-27.916,12.441-42.818c1.538-8.395,7.931-13.291,16.261-15.15
			c1.578-0.352,5.717-0.156,7.308-0.478C152.927,178.413,153.175,169.064,154.32,166.064z"/>
		<path style="fill:#2C4C89;" d="M127.6,167.383c-5.209,9.709-6.043,19.259-7.693,29.995c-1.65,10.736-0.777,26.268,4.743,35.828
			c3.07-0.177,7.275-3.206,9.58-5.323c-4.895-4.324-8.523-29.028,2.444-59.978C134.744,166.303,129.556,165.899,127.6,167.383z"/>
		<path style="fill:#2C4C89;" d="M81.641,200.306c0,0,7.869-22.198,23.724-41.898c-1.309-3.137-4.89-3.835-4.89-3.835
			s-33.832,42.665-23.317,60.001L81.641,200.306z"/>
		<path style="fill:#C37D41;" d="M132.676,147.926c4.206-9.238-6.363-16.413-12.399-17.481c1.053-3.28,3.631-7.702,6.535-9.555
			c2.904-1.853,7.173-1.859,9.471,0.708c1.844,2.061,1.996,5.074,2.861,7.701c1.032,3.137,3.129,5.79,4.807,8.635
			c1.678,2.845,2.982,6.198,2.191,9.405c-1.041,4.219-5.245,6.745-9.1,8.749c-3.855,2.004-8.419,6.415-9.701,10.567
			c-1.172-3.715-0.983-9.8-0.049-13.582c1.629,0.865,3.448,1.219,5.264,0.893c1.816-0.326,3.521-1.581,4.061-3.345
			C137.155,148.856,135.08,146.889,132.676,147.926z"/>
		<path style="fill:#F0A384;" d="M191.347,160.868c1.844-3.563,2.713-7.624,2.488-11.63c-0.041-0.731,0.005-1.666,0.691-1.919
			c0.39-0.144,0.842,0.03,1.133,0.326c0.291,0.296,0.453,0.694,0.59,1.086c0.605,1.735,0.865,3.589,0.761,5.423
			c2.464-2.639,4.639-5.765,6.092-9.07c0.287-0.654,0.56-1.329,1.025-1.872c0.465-0.542,1.171-0.937,1.876-0.828
			c1.171,0.182,1.716,1.54,1.931,2.705c0.61,3.311,0.334,6.781-0.792,9.953c0.573,1.757-0.438,3.702-1.483,5.227
			c-1.945,2.839-8.707,7.32-11.783,8.863c-1.325,0.664-1.357-0.818-2.828-1.001c-1.471-0.183-0.029-1.059-0.469-2.474
			c-0.668-2.148-0.039-0.787-0.203-3.031L191.347,160.868z"/>
	</g>
	<g>
		<polygon style="fill:#78B8D6;" points="256.415,127.652 282.408,135.359 280.268,142.12 257.221,130.16 		"/>
		<polygon style="fill:#FFFFFF;" points="256.415,127.652 284.313,138.764 281.732,145.699 256.889,129.327 		"/>
		<polygon style="fill:#9FD1EA;" points="256.415,127.652 240.795,168.76 267.278,178.017 285.402,141.976 		"/>
	</g>
	<g>
		<polygon style="fill:#78B8D6;" points="145.733,357.94 159.427,334.541 165.481,338.235 148.361,357.757 		"/>
		<polygon style="fill:#FFFFFF;" points="145.733,357.94 163.188,333.505 169.305,337.668 147.473,357.881 		"/>
		<polygon style="fill:#9FD1EA;" points="145.733,357.94 181.919,382.929 197.235,359.424 166.567,333.215 		"/>
	</g>
	<g>
		<polygon style="fill:#CF8431;" points="162.527,69.688 146.671,91.68 152.499,95.721 163.423,72.165 		"/>
		<polygon style="fill:#FFFFFF;" points="162.527,69.688 147.246,95.539 153.528,99.448 163.177,71.303 		"/>
		<polygon style="fill:#F79E3A;" points="162.527,69.688 200.022,92.666 184.726,116.184 148.348,98.746 		"/>
	</g>
	<g>
		<polygon style="fill:#5474AB;" points="375.333,94.272 364.866,69.262 358.376,72.12 372.753,93.742 		"/>
		<polygon style="fill:#FFFFFF;" points="375.333,94.272 361.276,67.736 354.66,71.05 373.616,93.983 		"/>
		<polygon style="fill:#708FC5;" points="375.333,94.272 336.15,114.236 324.09,88.906 357.965,67 		"/>
	</g>
	<g>
		<polygon style="fill:#5474AB;" points="368.289,404.674 381.446,380.969 375.184,377.642 367.108,402.32 		"/>
		<polygon style="fill:#FFFFFF;" points="368.289,404.674 380.422,377.205 373.723,374.062 367.453,403.147 		"/>
		<polygon style="fill:#708FC5;" points="368.289,404.674 328.35,386.269 340.772,361.114 378.949,374.149 		"/>
	</g>
</g>
</svg>
